<mxfile host="app.diagrams.net" modified="2022-11-01T15:44:37.074Z" agent="5.0 (Windows NT 10.0; Win64; x64) AppleWebKit/537.36 (KHTML, like Gecko) Chrome/106.0.0.0 Safari/537.36" etag="yF23s2I4sb3HB0i094kM" version="20.2.7" type="github">
  <diagram id="987veS0ROYOefqjShhMe" name="Page-1">
    <mxGraphModel dx="1038" dy="547" grid="1" gridSize="10" guides="1" tooltips="1" connect="1" arrows="1" fold="1" page="1" pageScale="1" pageWidth="827" pageHeight="1169" math="0" shadow="0">
      <root>
        <mxCell id="0" />
        <mxCell id="1" parent="0" />
        <mxCell id="9oQyQIpAaP51Bq9350bK-1" value="&lt;b&gt;VALUE&lt;/b&gt;" style="rounded=0;whiteSpace=wrap;html=1;fillColor=#dae8fc;strokeColor=#6c8ebf;" vertex="1" parent="1">
          <mxGeometry x="320" y="160" width="120" height="120" as="geometry" />
        </mxCell>
        <mxCell id="9oQyQIpAaP51Bq9350bK-2" value="&lt;font style=&quot;font-size: 10px;&quot;&gt;pointer&lt;/font&gt;" style="rounded=0;whiteSpace=wrap;html=1;fillColor=#CCCCFF;strokeColor=#6c8ebf;rotation=-90;" vertex="1" parent="1">
          <mxGeometry x="400" y="200" width="120" height="40" as="geometry" />
        </mxCell>
      </root>
    </mxGraphModel>
  </diagram>
</mxfile>
